<svg width="36" height="36" viewBox="0 0 36 36" fill="none" xmlns="http://www.w3.org/2000/svg">
<rect width="36" height="36" rx="18" fill="#FF0000"/>
<path d="M30.3295 11.8174C30.033 10.7158 29.1645 9.84733 28.0629 9.55077C26.0505 9 18.0009 9 18.0009 9C18.0009 9 9.95119 9 7.93878 9.52958C6.85843 9.82615 5.96873 10.7158 5.67216 11.8174C5.14258 13.8298 5.14258 18.0029 5.14258 18.0029C5.14258 18.0029 5.14258 22.1972 5.67216 24.1884C5.96873 25.29 6.83724 26.1585 7.93878 26.4551C9.97237 27.0058 18.0009 27.0058 18.0009 27.0058C18.0009 27.0058 26.0505 27.0058 28.0629 26.4762C29.1645 26.1797 30.033 25.3112 30.3295 24.2096C30.8591 22.1972 30.8591 18.0241 30.8591 18.0241C30.8591 18.0241 30.8803 13.8298 30.3295 11.8174Z" fill="white"/>
<path d="M15.4375 21.8582L22.1314 18.0028L15.4375 14.1475V21.8582Z" fill="#FF0000"/>
</svg>
