<svg width="36" height="36" viewBox="0 0 36 36" fill="none" xmlns="http://www.w3.org/2000/svg">
<rect width="36" height="36" rx="18" fill="black"/>
<rect x="0.5" y="0.5" width="35" height="35" rx="17.5" stroke="white" stroke-opacity="0.25"/>
<path d="M23.0188 14.4964C24.6393 15.6589 26.6245 16.3429 28.7686 16.3429V12.2023C28.3628 12.2024 27.9581 12.1599 27.5611 12.0755V15.3348C25.4171 15.3348 23.4322 14.6508 21.8112 13.4883V21.9382C21.8112 26.1652 18.3967 29.5916 14.185 29.5916C12.6135 29.5916 11.1528 29.1149 9.93945 28.2971C11.3243 29.7182 13.2556 30.5997 15.3922 30.5997C19.6042 30.5997 23.0189 27.1733 23.0189 22.9461V14.4964H23.0188ZM24.5084 10.319C23.6802 9.41099 23.1364 8.23756 23.0188 6.94029V6.40771H21.8745C22.1625 8.05655 23.1449 9.46522 24.5084 10.319ZM12.6034 25.0534C12.1407 24.4446 11.8906 23.6998 11.8918 22.934C11.8918 21.0007 13.4535 19.4331 15.3803 19.4331C15.7394 19.433 16.0964 19.4882 16.4386 19.5972V15.364C16.0387 15.309 15.635 15.2857 15.2316 15.2942V18.5891C14.8891 18.4801 14.532 18.4248 14.1728 18.4251C12.246 18.4251 10.6843 19.9925 10.6843 21.9261C10.6843 23.2932 11.465 24.4768 12.6034 25.0534Z" fill="#FF004F"/>
<path d="M21.811 13.4882C23.432 14.6507 25.4169 15.3347 27.5609 15.3347V12.0754C26.3641 11.8196 25.3047 11.192 24.5081 10.319C23.1446 9.46513 22.1623 8.05646 21.8742 6.40771H18.8685V22.9459C18.8617 24.8739 17.3026 26.435 15.3799 26.435C14.2469 26.435 13.2404 25.893 12.6029 25.0534C11.4645 24.4768 10.6839 23.2931 10.6839 21.9261C10.6839 19.9928 12.2456 18.4252 14.1724 18.4252C14.5416 18.4252 14.8974 18.4829 15.2312 18.5892V15.2943C11.0934 15.3801 7.76562 18.7731 7.76562 22.946C7.76562 25.029 8.59432 26.9174 9.93929 28.2972C11.1527 29.1149 12.6133 29.5917 14.1848 29.5917C18.3967 29.5917 21.8111 26.1651 21.8111 21.9382V13.4882H21.811Z" fill="white"/>
<path d="M27.5612 12.0756V11.1943C26.4821 11.196 25.4241 10.8926 24.5085 10.3191C25.319 11.2096 26.3863 11.8237 27.5612 12.0756ZM21.8746 6.40788C21.8471 6.25031 21.826 6.0917 21.8114 5.93248V5.3999H17.6613V21.9382C17.6547 23.866 16.0957 25.4271 14.1728 25.4271C13.6083 25.4271 13.0753 25.2927 12.6033 25.0537C13.2408 25.8932 14.2473 26.4351 15.3803 26.4351C17.3028 26.4351 18.8622 24.8742 18.8689 22.9461V6.40788H21.8746ZM15.2317 15.2945V14.3563C14.885 14.3087 14.5353 14.2848 14.1853 14.285C9.9731 14.2849 6.55859 17.7116 6.55859 21.9382C6.55859 24.5881 7.90056 26.9235 9.93977 28.2972C8.59479 26.9175 7.7661 25.029 7.7661 22.9461C7.7661 18.7732 11.0938 15.3803 15.2317 15.2945Z" fill="#00F2EA"/>
</svg>
